# Blender v2.83.2 OBJ File: ''
# www.blender.org
mtllib obj_interactive_compass_test2.mtl
o Cylinder1.002
v 0.500000 0.000000 -0.500000
v -0.500000 0.000000 -0.500000
v 0.461940 0.191342 -0.500000
v 0.461940 -0.191342 -0.500000
v -0.461940 -0.191342 -0.500000
v 0.353553 -0.353553 -0.500000
v -0.353553 -0.353553 -0.500000
v 0.191342 -0.461940 -0.500000
v -0.191342 -0.461940 -0.500000
v 0.000000 -0.500000 -0.500000
v -0.461940 0.191342 -0.500000
v -0.353553 0.353553 -0.500000
v 0.353553 0.353553 -0.500000
v -0.191342 0.461940 -0.500000
v 0.191342 0.461940 -0.500000
v -0.000000 0.500000 -0.500000
v 0.374171 -0.154987 -0.400000
v 0.374171 0.154987 -0.400000
v 0.286378 -0.286378 -0.400000
v 0.405000 0.000000 -0.400000
v 0.286378 0.286378 -0.400000
v 0.154987 0.374171 -0.400000
v 0.154987 -0.374171 -0.400000
v -0.000000 0.405000 -0.400000
v 0.000000 -0.405000 -0.400000
v -0.154987 0.374171 -0.400000
v -0.154987 -0.374171 -0.400000
v -0.286378 0.286378 -0.400000
v -0.286378 -0.286378 -0.400000
v -0.374171 0.154987 -0.400000
v -0.374171 -0.154987 -0.400000
v -0.405000 0.000000 -0.400000
v 0.050000 -0.004000 -0.401000
v 0.000000 -0.004000 -0.391000
v 0.038302 -0.036139 -0.401000
v 0.008682 -0.053240 -0.401000
v -0.025000 -0.047301 -0.401000
v -0.046985 -0.021101 -0.401000
v -0.046985 0.013101 -0.401000
v -0.025000 0.039301 -0.401000
v 0.008682 0.045240 -0.401000
v 0.038302 0.028139 -0.401000
v 0.350000 0.296000 -0.401000
v 0.253015 0.313101 -0.401000
v 0.338302 0.328139 -0.401000
v 0.338302 0.263861 -0.401000
v 0.253015 0.278899 -0.401000
v 0.308682 0.246760 -0.401000
v 0.275000 0.252699 -0.401000
v 0.275000 0.339301 -0.401000
v 0.308682 0.345240 -0.401000
v 0.250000 0.196000 -0.401000
v 0.153015 0.213101 -0.401000
v 0.238302 0.228139 -0.401000
v 0.238302 0.163861 -0.401000
v 0.153015 0.178899 -0.401000
v 0.208682 0.146760 -0.401000
v 0.175000 0.152699 -0.401000
v 0.175000 0.239301 -0.401000
v 0.208682 0.245240 -0.401000
v 0.150000 0.096000 -0.401000
v 0.100000 0.096000 -0.391000
v 0.138302 0.063861 -0.401000
v 0.108682 0.046760 -0.401000
v 0.075000 0.052699 -0.401000
v 0.053015 0.078899 -0.401000
v 0.053015 0.113101 -0.401000
v 0.075000 0.139301 -0.401000
v 0.108682 0.145240 -0.401000
v 0.138302 0.128139 -0.401000
v 0.450000 0.000000 -0.300000
v 0.415746 -0.172207 -0.300000
v 0.318198 -0.318198 -0.300000
v 0.172208 -0.415746 -0.300000
v 0.000000 -0.450000 -0.300000
v -0.172208 -0.415746 -0.300000
v -0.318198 -0.318198 -0.300000
v -0.415746 -0.172207 -0.300000
v -0.450000 0.000000 -0.300000
v -0.415746 0.172208 -0.300000
v -0.318198 0.318198 -0.300000
v -0.172208 0.415746 -0.300000
v -0.000000 0.450000 -0.300000
v 0.172208 0.415746 -0.300000
v 0.318198 0.318198 -0.300000
v 0.415746 0.172208 -0.300000
v 0.300000 0.296000 -0.391000
v 0.200000 0.196000 -0.391000
vt 0.257007 0.119818
vt 0.062993 0.200182
vt 0.265000 0.160000
vt 0.234246 0.085754
vt 0.055000 0.160000
vt 0.200182 0.062993
vt 0.062993 0.119818
vt 0.160000 0.055000
vt 0.085754 0.085754
vt 0.119818 0.062993
vt 0.085754 0.234246
vt 0.119818 0.257007
vt 0.257007 0.200182
vt 0.160000 0.265000
vt 0.234246 0.234246
vt 0.200182 0.257007
vt 0.969447 0.176675
vt 0.969447 0.383325
vt 0.910919 0.089081
vt 0.990000 0.280000
vt 0.910919 0.470919
vt 0.823325 0.529447
vt 0.823325 0.030553
vt 0.720000 0.550000
vt 0.720000 0.010000
vt 0.616675 0.529447
vt 0.616675 0.030553
vt 0.529081 0.470919
vt 0.529081 0.089081
vt 0.470553 0.383325
vt 0.470553 0.176675
vt 0.450000 0.280000
vt 0.940848 0.890000
vt 0.864691 0.890000
vt 0.923030 0.841047
vt 0.877915 0.815000
vt 0.826612 0.824046
vt 0.793126 0.863953
vt 0.793126 0.916047
vt 0.826612 0.955954
vt 0.877915 0.965000
vt 0.923030 0.938953
vt 0.819152 0.890000
vt 0.966874 0.916047
vt 0.836970 0.938953
vt 0.836970 0.841047
vt 0.966874 0.863953
vt 0.882085 0.815000
vt 0.933388 0.824046
vt 0.933388 0.955954
vt 0.882085 0.965000
vt 0.819152 0.890000
vt 0.966874 0.916047
vt 0.836970 0.938953
vt 0.836970 0.841047
vt 0.966874 0.863953
vt 0.882085 0.815000
vt 0.933388 0.824046
vt 0.933388 0.955954
vt 0.882085 0.965000
vt 0.940848 0.890000
vt 0.864691 0.890000
vt 0.923030 0.841047
vt 0.877915 0.815000
vt 0.826612 0.824046
vt 0.793126 0.863953
vt 0.793126 0.916047
vt 0.826612 0.955954
vt 0.877915 0.965000
vt 0.923030 0.938953
vt 0.265000 0.160000
vt 0.254500 0.160000
vt 0.257007 0.119818
vt 0.226822 0.093178
vt 0.234246 0.085754
vt 0.200182 0.062993
vt 0.160000 0.065500
vt 0.160000 0.055000
vt 0.119818 0.062993
vt 0.093178 0.093178
vt 0.085754 0.085754
vt 0.062993 0.119818
vt 0.065500 0.160000
vt 0.055000 0.160000
vt 0.062993 0.200182
vt 0.093178 0.226822
vt 0.085754 0.234246
vt 0.119818 0.257007
vt 0.160000 0.254500
vt 0.160000 0.265000
vt 0.200182 0.257007
vt 0.226822 0.226822
vt 0.234246 0.234246
vt 0.257007 0.200182
vt 0.247307 0.123836
vt 0.247307 0.196164
vt 0.196164 0.247307
vt 0.123836 0.247307
vt 0.072693 0.196164
vt 0.072693 0.123836
vt 0.123836 0.072693
vt 0.196164 0.072693
vt 0.819152 0.890000
vt 0.966874 0.916047
vt 0.836970 0.938953
vt 0.836970 0.841047
vt 0.966874 0.863953
vt 0.882085 0.815000
vt 0.933388 0.824046
vt 0.933388 0.955954
vt 0.882085 0.965000
vt 0.940848 0.890000
vt 0.864691 0.890000
vt 0.923030 0.841047
vt 0.877915 0.815000
vt 0.826612 0.824046
vt 0.793126 0.863953
vt 0.793126 0.916047
vt 0.826612 0.955954
vt 0.877915 0.965000
vt 0.923030 0.938953
vt 0.940848 0.890000
vt 0.864691 0.890000
vt 0.923030 0.841047
vt 0.877915 0.815000
vt 0.826612 0.824046
vt 0.793126 0.863953
vt 0.793126 0.916047
vt 0.826612 0.955954
vt 0.877915 0.965000
vt 0.923030 0.938953
vt 0.819152 0.890000
vt 0.966874 0.916047
vt 0.836970 0.938953
vt 0.836970 0.841047
vt 0.966874 0.863953
vt 0.882085 0.815000
vt 0.933388 0.824046
vt 0.933388 0.955954
vt 0.882085 0.965000
vt 0.254500 0.160000
vt 0.265000 0.160000
vt 0.247307 0.196164
vt 0.247307 0.123836
vt 0.234246 0.085754
vt 0.257007 0.119818
vt 0.226822 0.093178
vt 0.196164 0.072693
vt 0.160000 0.055000
vt 0.200182 0.062993
vt 0.160000 0.065500
vt 0.123836 0.072693
vt 0.085754 0.085754
vt 0.119818 0.062993
vt 0.093178 0.093178
vt 0.072693 0.123836
vt 0.055000 0.160000
vt 0.062993 0.119818
vt 0.065500 0.160000
vt 0.072693 0.196164
vt 0.085754 0.234246
vt 0.062993 0.200182
vt 0.093178 0.226822
vt 0.123836 0.247307
vt 0.160000 0.265000
vt 0.119818 0.257007
vt 0.160000 0.254500
vt 0.196164 0.247307
vt 0.234246 0.234246
vt 0.200182 0.257007
vt 0.226822 0.226822
vt 0.257007 0.200182
vn 0.0000 0.0000 -1.0000
vn -0.0000 -0.0000 1.0000
vn 0.1961 0.0000 0.9806
vn 0.1502 -0.1261 0.9806
vn 0.0341 -0.1931 0.9806
vn -0.0981 -0.1698 0.9806
vn -0.1843 -0.0671 0.9806
vn -0.1843 0.0671 0.9806
vn -0.0981 0.1698 0.9806
vn 0.0341 0.1931 0.9806
vn 0.1502 0.1261 0.9806
vn -0.9119 0.0000 0.4104
vn -0.8425 0.3490 0.4104
vn -0.6448 0.6448 0.4104
vn -0.3490 0.8425 0.4104
vn 0.0000 0.9119 0.4104
vn 0.3490 0.8425 0.4104
vn 0.6448 0.6448 0.4104
vn 0.8425 0.3490 0.4104
vn 0.9119 0.0000 0.4104
vn 0.8425 -0.3490 0.4104
vn 0.6448 -0.6448 0.4104
vn 0.3490 -0.8425 0.4104
vn 0.0000 -0.9119 0.4104
vn -0.3490 -0.8425 0.4104
vn -0.6448 -0.6448 0.4104
vn -0.8425 -0.3490 0.4104
vn 0.9701 0.0000 0.2425
vn 0.8963 0.3713 0.2425
vn 0.8963 -0.3713 0.2425
vn 0.6860 -0.6860 0.2425
vn 0.3713 -0.8963 0.2425
vn -0.0000 -0.9701 0.2425
vn -0.3713 -0.8963 0.2425
vn -0.6860 -0.6860 0.2425
vn -0.8963 -0.3713 0.2425
vn -0.9701 0.0000 0.2425
vn -0.8963 0.3713 0.2425
vn -0.6860 0.6860 0.2425
vn -0.3713 0.8963 0.2425
vn -0.0000 0.9701 0.2425
vn 0.3713 0.8963 0.2425
vn 0.6860 0.6860 0.2425
usemtl cone2_auv.002
s 1
f 1/1/1 2/2/1 3/3/1
f 4/4/1 5/5/1 1/1/1
f 6/6/1 7/7/1 4/4/1
f 8/8/1 9/9/1 6/6/1
f 10/10/1 9/9/1 8/8/1
f 7/7/1 6/6/1 9/9/1
f 5/5/1 4/4/1 7/7/1
f 2/2/1 1/1/1 5/5/1
f 11/11/1 3/3/1 2/2/1
f 12/12/1 13/13/1 11/11/1
f 14/14/1 15/15/1 12/12/1
f 16/16/1 15/15/1 14/14/1
f 13/13/1 12/12/1 15/15/1
f 3/3/1 11/11/1 13/13/1
f 17/17/2 18/18/2 19/19/2
f 20/20/2 18/18/2 17/17/2
f 21/21/2 19/19/2 18/18/2
f 22/22/2 23/23/2 21/21/2
f 24/24/2 25/25/2 22/22/2
f 26/26/2 27/27/2 24/24/2
f 28/28/2 29/29/2 26/26/2
f 30/30/2 31/31/2 28/28/2
f 32/32/2 31/31/2 30/30/2
f 29/29/2 28/28/2 31/31/2
f 27/27/2 26/26/2 29/29/2
f 25/25/2 24/24/2 27/27/2
f 23/23/2 22/22/2 25/25/2
f 19/19/2 21/21/2 23/23/2
f 33/33/3 34/34/2 35/35/4
f 35/35/4 34/34/2 36/36/5
f 36/36/5 34/34/2 37/37/6
f 37/37/6 34/34/2 38/38/7
f 38/38/7 34/34/2 39/39/8
f 39/39/8 34/34/2 40/40/9
f 40/40/9 34/34/2 41/41/10
f 41/41/10 34/34/2 42/42/11
f 42/42/11 34/34/2 33/33/3
f 43/43/1 44/44/1 45/45/1
f 46/46/1 47/47/1 43/43/1
f 48/48/1 49/49/1 46/46/1
f 47/47/1 46/46/1 49/49/1
f 44/44/1 43/43/1 47/47/1
f 50/50/1 45/45/1 44/44/1
f 51/51/1 45/45/1 50/50/1
f 52/52/1 53/53/1 54/54/1
f 55/55/1 56/56/1 52/52/1
f 57/57/1 58/58/1 55/55/1
f 56/56/1 55/55/1 58/58/1
f 53/53/1 52/52/1 56/56/1
f 59/59/1 54/54/1 53/53/1
f 60/60/1 54/54/1 59/59/1
f 61/61/3 62/62/2 63/63/4
f 63/63/4 62/62/2 64/64/5
f 64/64/5 62/62/2 65/65/6
f 65/65/6 62/62/2 66/66/7
f 66/66/7 62/62/2 67/67/8
f 67/67/8 62/62/2 68/68/9
f 68/68/9 62/62/2 69/69/10
f 69/69/10 62/62/2 70/70/11
f 70/70/11 62/62/2 61/61/3
f 71/71/12 20/72/12 72/73/13
f 72/73/13 19/74/14 73/75/14
f 73/75/14 19/74/14 74/76/15
f 74/76/15 25/77/16 75/78/16
f 75/78/16 25/77/16 76/79/17
f 76/79/17 29/80/18 77/81/18
f 77/81/18 29/80/18 78/82/19
f 78/82/19 32/83/20 79/84/20
f 79/84/20 32/83/20 80/85/21
f 80/85/21 28/86/22 81/87/22
f 81/87/22 28/86/22 82/88/23
f 82/88/23 24/89/24 83/90/24
f 83/90/24 24/89/24 84/91/25
f 84/91/25 21/92/26 85/93/26
f 85/93/26 21/92/26 86/94/27
f 86/94/27 20/72/12 71/71/12
f 17/95/13 72/73/13 20/72/12
f 17/95/13 19/74/14 72/73/13
f 20/72/12 86/94/27 18/96/27
f 18/96/27 86/94/27 21/92/26
f 21/92/26 84/91/25 22/97/25
f 22/97/25 84/91/25 24/89/24
f 24/89/24 82/88/23 26/98/23
f 26/98/23 82/88/23 28/86/22
f 28/86/22 80/85/21 30/99/21
f 30/99/21 80/85/21 32/83/20
f 32/83/20 78/82/19 31/100/19
f 31/100/19 78/82/19 29/80/18
f 29/80/18 76/79/17 27/101/17
f 27/101/17 76/79/17 25/77/16
f 25/77/16 74/76/15 23/102/15
f 23/102/15 74/76/15 19/74/14
f 33/103/1 39/104/1 42/105/1
f 35/106/1 38/107/1 33/103/1
f 36/108/1 37/109/1 35/106/1
f 38/107/1 35/106/1 37/109/1
f 39/104/1 33/103/1 38/107/1
f 40/110/1 42/105/1 39/104/1
f 41/111/1 42/105/1 40/110/1
f 43/112/3 87/113/2 46/114/4
f 46/114/4 87/113/2 48/115/5
f 48/115/5 87/113/2 49/116/6
f 49/116/6 87/113/2 47/117/7
f 47/117/7 87/113/2 44/118/8
f 44/118/8 87/113/2 50/119/9
f 50/119/9 87/113/2 51/120/10
f 51/120/10 87/113/2 45/121/11
f 45/121/11 87/113/2 43/112/3
f 52/122/3 88/123/2 55/124/4
f 55/124/4 88/123/2 57/125/5
f 57/125/5 88/123/2 58/126/6
f 58/126/6 88/123/2 56/127/7
f 56/127/7 88/123/2 53/128/8
f 53/128/8 88/123/2 59/129/9
f 59/129/9 88/123/2 60/130/10
f 60/130/10 88/123/2 54/131/11
f 54/131/11 88/123/2 52/122/3
f 61/132/1 67/133/1 70/134/1
f 63/135/1 66/136/1 61/132/1
f 64/137/1 65/138/1 63/135/1
f 66/136/1 63/135/1 65/138/1
f 67/133/1 61/132/1 66/136/1
f 68/139/1 70/134/1 67/133/1
f 69/140/1 70/134/1 68/139/1
f 71/141/28 1/142/28 86/143/29
f 72/144/30 1/142/28 71/141/28
f 72/144/30 6/145/31 4/146/30
f 73/147/31 6/145/31 72/144/30
f 74/148/32 6/145/31 73/147/31
f 74/148/32 10/149/33 8/150/32
f 75/151/33 10/149/33 74/148/32
f 76/152/34 10/149/33 75/151/33
f 76/152/34 7/153/35 9/154/34
f 77/155/35 7/153/35 76/152/34
f 78/156/36 7/153/35 77/155/35
f 78/156/36 2/157/37 5/158/36
f 79/159/37 2/157/37 78/156/36
f 80/160/38 2/157/37 79/159/37
f 80/160/38 12/161/39 11/162/38
f 81/163/39 12/161/39 80/160/38
f 82/164/40 12/161/39 81/163/39
f 82/164/40 16/165/41 14/166/40
f 83/167/41 16/165/41 82/164/40
f 84/168/42 16/165/41 83/167/41
f 84/168/42 13/169/43 15/170/42
f 85/171/43 13/169/43 84/168/42
f 86/143/29 1/142/28 3/172/29
f 86/143/29 13/169/43 85/171/43
f 4/146/30 1/142/28 72/144/30
f 8/150/32 6/145/31 74/148/32
f 9/154/34 10/149/33 76/152/34
f 5/158/36 7/153/35 78/156/36
f 11/162/38 2/157/37 80/160/38
f 14/166/40 12/161/39 82/164/40
f 15/170/42 16/165/41 84/168/42
f 3/172/29 13/169/43 86/143/29
