# Blender v2.78 (sub 0) OBJ File: ''
# www.blender.org
mtllib AC1x1.mtl
o _submesh0_extract3__submesh0_extract3_auv.000
v -0.056862 -0.211949 -0.375406
v -0.051310 -0.191255 -0.346145
v -0.140063 -0.139976 -0.346145
v -0.155218 -0.155122 -0.375406
v 0.140063 0.139976 -0.346145
v 0.051310 0.191255 -0.346145
v -0.051192 0.191286 -0.346145
v -0.139976 0.140063 -0.346145
v -0.191255 0.051310 -0.346145
v -0.191286 -0.051192 -0.346145
v 0.051192 -0.191286 -0.346145
v 0.139976 -0.140063 -0.346145
v 0.191255 -0.051310 -0.346145
v 0.191286 0.051192 -0.346145
v -0.211949 0.056862 -0.375406
v -0.155122 0.155218 -0.375406
v 0.211984 0.056731 -0.375406
v 0.211949 -0.056862 -0.375406
v 0.056862 0.211949 -0.375406
v 0.155218 0.155122 -0.375406
v 0.056730 -0.211984 -0.375406
v -0.211984 -0.056731 -0.375406
v -0.056731 0.211984 -0.375406
v 0.155122 -0.155218 -0.375406
v -0.211048 0.234173 -0.458516
v 0.211048 0.234173 -0.458516
v 0.211048 0.302628 -0.458516
v -0.211048 0.302628 -0.458516
v 0.211048 0.234173 -0.494852
v 0.211048 0.302628 -0.494852
v -0.211048 0.302628 -0.494852
v -0.211048 0.234173 -0.494852
v -0.056731 0.211984 -0.480257
v 0.056862 0.211949 -0.480257
v 0.155122 -0.155218 -0.480257
v 0.056730 -0.211984 -0.480257
v -0.155218 -0.155122 -0.480257
v -0.211984 -0.056731 -0.480257
v -0.155122 0.155218 -0.480257
v 0.211949 -0.056862 -0.480257
v 0.155218 0.155122 -0.480257
v 0.211984 0.056731 -0.480257
v -0.056862 -0.211949 -0.480257
v -0.211949 0.056862 -0.480257
v 0.420968 0.114613 -0.459774
v 0.420968 0.315960 -0.472013
v 0.420968 -0.295156 -0.472152
v 0.420968 -0.093828 -0.459821
v -0.420968 -0.295156 -0.472152
v -0.420968 0.315960 -0.472013
v -0.420968 0.114613 -0.459774
v -0.420968 -0.093828 -0.459821
v 0.500000 0.362808 -0.499945
v 0.500000 -0.362808 -0.500055
v -0.500000 -0.362808 -0.500055
v -0.500000 0.362808 -0.499945
v -0.500000 0.123891 -0.476492
v -0.500000 -0.123684 -0.476547
v 0.500000 -0.123684 -0.476547
v 0.500000 0.123891 -0.476492
v -0.450000 0.121802 -0.457912
v -0.450000 0.337033 -0.473869
v 0.450000 0.337033 -0.473869
v 0.450000 -0.325784 -0.477960
v -0.450000 -0.325784 -0.477960
v 0.450000 0.121802 -0.457912
v -0.450000 -0.101016 -0.457961
v 0.450000 -0.101016 -0.457961
vt 0.2426 0.1077
vt 0.2366 0.1305
vt 0.2384 0.0657
vt 0.2428 0.0879
vt 0.0390 0.0659
vt 0.0411 0.1306
vt 0.0349 0.1079
vt 0.0347 0.0882
vt 0.2098 0.9201
vt 0.2098 0.9930
vt 0.0089 0.9930
vt 0.0089 0.9201
vt 0.0264 0.1102
vt 0.0324 0.1376
vt 0.0311 0.0575
vt 0.0266 0.0842
vt 0.2508 0.0839
vt 0.2462 0.0575
vt 0.2453 0.1376
vt 0.2512 0.1099
vt 0.0535 0.2903
vt 0.0514 0.2256
vt 0.2508 0.2254
vt 0.2490 0.2902
vt 0.0321 0.1090
vt 0.0378 0.1336
vt 0.2399 0.1336
vt 0.2412 0.0622
vt 0.0361 0.0623
vt 0.2455 0.1087
vt 0.0318 0.0873
vt 0.2456 0.0870
vt 0.8150 0.4857
vt 0.7972 0.4820
vt 0.7972 0.4147
vt 0.8150 0.4111
vt 0.5377 0.9151
vt 0.5289 0.9345
vt 0.5123 0.9466
vt 0.4922 0.9480
vt 0.4740 0.9384
vt 0.4626 0.9204
vt 0.4611 0.8987
vt 0.4698 0.8792
vt 0.4865 0.8671
vt 0.5066 0.8657
vt 0.5248 0.8753
vt 0.5361 0.8934
vt 0.7571 0.4099
vt 0.7749 0.4135
vt 0.7749 0.4809
vt 0.7571 0.4845
vt 0.6510 0.3464
vt 0.6689 0.3564
vt 0.6689 0.4147
vt 0.6510 0.4111
vt 0.5011 0.4845
vt 0.4832 0.4809
vt 0.4832 0.4135
vt 0.5011 0.4099
vt 0.8150 0.5503
vt 0.7972 0.5403
vt 0.7571 0.3453
vt 0.7749 0.3552
vt 0.5011 0.5491
vt 0.4832 0.5392
vt 0.6510 0.4857
vt 0.6689 0.4820
vt 0.6689 0.5403
vt 0.6510 0.5503
vt 0.7972 0.3564
vt 0.8150 0.3464
vt 0.7749 0.5392
vt 0.7571 0.5491
vt 0.4832 0.3552
vt 0.5011 0.3453
vt 0.9316 0.9432
vt 0.6432 0.9432
vt 0.6432 0.8905
vt 0.9316 0.8905
vt 0.2161 0.6481
vt 0.2161 0.6649
vt 0.2061 0.6649
vt 0.2061 0.6481
vt 0.2158 0.6688
vt 0.2158 0.6856
vt 0.2057 0.6856
vt 0.2057 0.6688
vt 0.2424 0.5822
vt 0.2424 0.6860
vt 0.2324 0.6860
vt 0.2324 0.5822
vt 0.2190 0.6860
vt 0.2190 0.5822
vt 0.2291 0.5822
vt 0.2291 0.6860
vt 0.5649 0.5491
vt 0.5649 0.4845
vt 0.5872 0.4857
vt 0.5872 0.5503
vt 0.8788 0.4111
vt 0.8788 0.3464
vt 0.6932 0.4845
vt 0.6932 0.5491
vt 0.5872 0.4111
vt 0.5649 0.4099
vt 0.5649 0.3453
vt 0.8788 0.4857
vt 0.6932 0.4099
vt 0.5872 0.3464
vt 0.8788 0.5503
vt 0.6932 0.3453
vn -1.0000 0.0000 0.0000
vn 1.0000 -0.0000 0.0000
vn 0.0000 0.0002 -1.0000
vn 0.0000 -0.0002 1.0000
vn 0.0504 -0.0273 0.9984
vn -0.2651 0.3344 0.9044
vn -0.3692 0.0412 0.9284
vn -0.3678 0.0384 0.9291
vn -0.1342 0.3660 0.9209
vn 0.2651 0.3344 0.9044
vn 0.1342 0.3660 0.9209
vn -0.1948 -0.2815 0.9396
vn 0.1948 -0.2815 0.9396
vn 0.1234 -0.2752 0.9534
vn -0.1234 -0.2752 0.9534
vn -0.0461 0.0388 0.9982
vn -0.0154 0.0783 0.9968
vn -0.0509 0.0285 0.9983
vn 0.0165 -0.0437 0.9989
vn -0.0094 -0.1304 0.9914
vn 0.0291 -0.0322 0.9991
vn 0.0461 0.0388 0.9982
vn 0.0509 0.0285 0.9983
vn 0.3369 -0.0558 0.9399
vn 0.3419 -0.0324 0.9392
vn 0.3692 0.0412 0.9284
vn 0.3678 0.0384 0.9291
vn -0.3369 -0.0558 0.9399
vn -0.3419 -0.0324 0.9392
vn 0.0094 -0.1304 0.9914
vn 0.0154 0.0783 0.9968
vn -0.0165 -0.0437 0.9989
vn -0.0291 -0.0322 0.9991
vn -0.4084 -0.7069 0.5774
vn 0.0000 -0.0000 1.0000
vn -0.7069 0.4084 0.5774
vn 0.8164 -0.0002 0.5774
vn 0.4084 0.7069 0.5774
vn -0.0002 -0.8164 0.5774
vn -0.8164 0.0002 0.5775
vn 0.0002 0.8164 0.5774
vn 0.4080 -0.7072 0.5774
vn -0.7072 -0.4080 0.5775
vn -0.4080 0.7072 0.5775
vn 0.7069 -0.4084 0.5774
vn 0.7072 0.4080 0.5775
vn 0.0000 1.0000 0.0000
vn 0.0000 -1.0000 0.0000
vn -0.2585 0.9660 0.0000
vn 0.2591 0.9658 0.0000
vn 0.7069 -0.7073 -0.0000
vn 0.2585 -0.9660 -0.0000
vn -0.7073 -0.7069 -0.0000
vn -0.9660 -0.2585 -0.0000
vn -0.7069 0.7073 0.0000
vn 0.9658 -0.2591 -0.0000
vn 0.7073 0.7069 0.0000
vn 0.9660 0.2585 0.0000
vn -0.2591 -0.9658 -0.0000
vn -0.9658 0.2591 0.0000
usemtl _submesh0_extract3_auv.001
s off
f 45/1/1 46/2/1 47/3/1 48/4/1
f 49/5/2 50/6/2 51/7/2 52/8/2
f 53/9/3 54/10/3 55/11/3 56/12/3
f 57/13/1 56/14/1 55/15/1 58/16/1
f 59/17/2 54/18/2 53/19/2 60/20/2
f 50/21/4 49/22/4 47/23/5 46/24/4
s 1
f 56/14/6 57/13/7 61/25/8 62/26/9
f 53/19/10 56/14/6 62/26/9 63/27/11
f 55/15/12 54/18/13 64/28/14 65/29/15
f 66/30/16 63/27/11 46/2/17 45/1/18
f 67/31/19 65/29/15 49/5/20 52/8/21
f 61/25/22 67/31/19 52/8/21 51/7/23
f 54/18/13 59/17/24 68/32/25 64/28/14
f 59/17/24 60/20/26 66/30/27 68/32/25
f 57/13/7 58/16/28 67/31/29 61/25/8
f 58/16/28 55/15/12 65/29/15 67/31/29
f 60/20/26 53/19/10 63/27/11 66/30/27
f 65/29/15 64/28/14 47/3/30 49/5/20
f 62/26/9 61/25/22 51/7/23 50/6/31
f 63/27/11 62/26/9 50/6/31 46/2/17
f 68/32/32 66/30/16 45/1/18 48/4/33
f 64/28/14 68/32/32 48/4/33 47/3/30
usemtl _submesh0_extract3_auv.000
s off
f 1/33/34 2/34/34 3/35/34 4/36/34
f 5/37/35 6/38/35 7/39/35 8/40/35 9/41/35 10/42/35 3/43/35 2/44/35 11/45/35 12/46/35 13/47/35 14/48/35
f 15/49/36 9/50/36 8/51/36 16/52/36
f 17/53/37 14/54/37 13/55/37 18/56/37
f 19/57/38 6/58/38 5/59/38 20/60/38
f 21/61/39 11/62/39 2/34/39 1/33/39
f 22/63/40 10/64/40 9/50/40 15/49/40
f 23/65/41 7/66/41 6/58/41 19/57/41
f 24/67/42 12/68/42 11/69/42 21/70/42
f 4/36/43 3/35/43 10/71/43 22/72/43
f 16/52/44 8/51/44 7/73/44 23/74/44
f 18/56/45 13/55/45 12/68/45 24/67/45
f 20/60/46 5/59/46 14/75/46 17/76/46
f 25/77/35 26/78/35 27/79/35 28/80/35
f 29/81/2 30/82/2 27/83/2 26/84/2
f 31/85/1 32/86/1 25/87/1 28/88/1
f 30/89/47 31/90/47 28/91/47 27/92/47
f 32/93/48 29/94/48 26/95/48 25/96/48
s 1
f 33/97/49 23/65/49 19/57/50 34/98/50
f 35/99/51 24/67/51 21/70/52 36/100/52
f 37/101/53 4/36/53 22/72/54 38/102/54
f 39/103/55 16/52/55 23/74/49 33/104/49
f 40/105/56 18/56/56 24/67/51 35/99/51
f 41/106/57 20/60/57 17/76/58 42/107/58
f 43/108/59 1/33/59 4/36/53 37/101/53
f 44/109/60 15/49/60 16/52/55 39/103/55
f 42/110/58 17/53/58 18/56/56 40/105/56
f 34/98/50 19/57/50 20/60/57 41/106/57
f 36/111/52 21/61/52 1/33/59 43/108/59
f 38/112/54 22/63/54 15/49/60 44/109/60
